<?xml version="1.0" standalone="no"?>
<svg viewBox="0 0 200 200" xmlns="http://www.w3.org/2000/svg">
  <path fill="#A7F0BA" d="M36.1,-57.5C48.7,-48,62.3,-41.3,70.4,-30.2C78.6,-19,81.5,-3.5,79.9,11.9C78.3,27.2,72.3,42.4,62.5,54.7C52.7,67.1,39,76.7,24.7,78C10.5,79.4,-4.4,72.5,-19.7,67.8C-35.1,63,-50.8,60.4,-59,51C-67.1,41.7,-67.7,25.8,-70.6,9.7C-73.6,-6.3,-78.9,-22.4,-73.8,-33.7C-68.6,-45,-53,-51.6,-39,-60.4C-24.9,-69.2,-12.5,-80.3,-0.4,-79.7C11.7,-79.1,23.4,-66.9,36.1,-57.5Z" transform="translate(100 100)" />
</svg>
